<?xml version="1.0" encoding="UTF-8"?>
<svg version="1.1" xmlns="http://www.w3.org/2000/svg" width="32" height="32">
<path d="M0 0 C10.56 0 21.12 0 32 0 C32 10.56 32 21.12 32 32 C21.44 32 10.88 32 0 32 C0 21.44 0 10.88 0 0 Z " fill="#580259" transform="translate(0,0)"/>
<path d="M0 0 C1.32 0 2.64 0 4 0 C4 1.98 4 3.96 4 6 C5.918125 5.938125 5.918125 5.938125 7.875 5.875 C10.0546875 5.8046875 10.0546875 5.8046875 12 6 C14 8 14 8 14.265625 10.96875 C14.26046875 12.1340625 14.2553125 13.299375 14.25 14.5 C14.25515625 15.6653125 14.2603125 16.830625 14.265625 18.03125 C14 21 14 21 12 23 C9.6875 23.30078125 9.6875 23.30078125 7 23.3125 C6.113125 23.32925781 5.22625 23.34601562 4.3125 23.36328125 C3.549375 23.24339844 2.78625 23.12351562 2 23 C-0.13604308 19.79593538 -0.24208908 19.00399253 -0.1953125 15.33203125 C-0.18564453 13.99301758 -0.18564453 13.99301758 -0.17578125 12.62695312 C-0.15902344 11.69818359 -0.14226563 10.76941406 -0.125 9.8125 C-0.11597656 8.87212891 -0.10695313 7.93175781 -0.09765625 6.96289062 C-0.07409056 4.64167032 -0.04119116 2.32096356 0 0 Z " fill="#ECE3EC" transform="translate(9,5)"/>
<path d="M0 0 C0.99 0 1.98 0 3 0 C3 2.31 3 4.62 3 7 C4.98 7 6.96 7 9 7 C6 9 6 9 4 9 C4.05995322 10.79260132 4.1487241 12.58425795 4.25 14.375 C4.29640625 15.37273438 4.3428125 16.37046875 4.390625 17.3984375 C4.72160885 20.1526477 4.72160885 20.1526477 7.046875 21.3515625 C7.69140625 21.56554687 8.3359375 21.77953125 9 22 C6.36 22 3.72 22 1 22 C-0.20029908 19.59940183 -0.11459743 18.10639351 -0.09765625 15.4296875 C-0.09443359 14.53378906 -0.09121094 13.63789063 -0.08789062 12.71484375 C-0.07951172 11.77769531 -0.07113281 10.84054687 -0.0625 9.875 C-0.05798828 8.93011719 -0.05347656 7.98523438 -0.04882812 7.01171875 C-0.03702357 4.67441613 -0.02055759 2.33723939 0 0 Z " fill="#F5F0F5" transform="translate(9,5)"/>
<path d="M0 0 C1.99954746 -0.04254356 4.00041636 -0.04080783 6 0 C7 1 7 1 7.1328125 3.03125 C7.13023438 3.8459375 7.12765625 4.660625 7.125 5.5 C7.12757812 6.3146875 7.13015625 7.129375 7.1328125 7.96875 C7 10 7 10 6 11 C4.00041636 11.04080783 1.99954746 11.04254356 0 11 C0 7.37 0 3.74 0 0 Z " fill="#5E0D5F" transform="translate(13,14)"/>
<path d="M0 0 C0.33 0 0.66 0 1 0 C1 1.98 1 3.96 1 6 C2.918125 5.938125 2.918125 5.938125 4.875 5.875 C7.0546875 5.8046875 7.0546875 5.8046875 9 6 C9.66 6.66 10.32 7.32 11 8 C10.625 10.125 10.625 10.125 10 12 C6.38058265 10.49760034 3.2678206 9.17854707 0 7 C-0.1875 3.375 -0.1875 3.375 0 0 Z " fill="#E3D6E3" transform="translate(12,5)"/>
<path d="M0 0 C0.99 0 1.98 0 3 0 C3 2.31 3 4.62 3 7 C2.01 7.33 1.02 7.66 0 8 C0 5.36 0 2.72 0 0 Z " fill="#FCFAFC" transform="translate(20,16)"/>
</svg>
