<?xml version="1.0" encoding="utf-8"?>
<!-- Generator: Adobe Illustrator 24.2.1, SVG Export Plug-In . SVG Version: 6.00 Build 0)  -->
<svg version="1.1" id="Layer_1" xmlns="http://www.w3.org/2000/svg" xmlns:xlink="http://www.w3.org/1999/xlink" x="0px" y="0px"
	 viewBox="0 0 621.6 83.9" enable-background="new 0 0 621.6 83.9" xml:space="preserve">
<g>
	<g>
		<path fill="#0C5EAB" d="M27.3,32.3H0c0-6.6,5.1-12.8,13.7-12.8C21.3,19.5,27.3,25,27.3,32.3"/>
		<path fill="#0C5EAB" d="M72.4,21.4c7,11.3,7,29.1,0,40.4c5.8-0.5,11-2.4,15-7.3c5.6-7.1,5.7-16.2,1.8-23.5
			C86,24.5,79,21.9,72.4,21.4 M72.1,0.6c21.1,0,34.6,11.7,39.6,23.9c6.5,12.5,4.1,30.4-3.5,42.1c-6.3,9.9-16.8,15.8-36.6,15.8
			c-18.7,0-42,0-53.1,0c17.1-1.3,28.1-11.3,34.7-25.3l-25.3,0c-1.7,3.2-6.5,5.4-11.9,5.4c-8.8,0-14-8.2-14-14.7h52.8
			c2.2-7.8,0.6-16.5-2.6-23.3c-6-13.9-21.8-23.5-34.7-23.9L72.1,0.6z"/>
	</g>
	<g>
		<g>
			<polygon fill="#0C5EAB" points="224,13.7 182.9,13.7 180.3,35 216.2,35 214.7,47 178.9,47 176.2,69.4 217.3,69.4 215.7,82.4 
				156.1,82.4 166,0.7 225.6,0.7 			"/>
			<polygon fill="#0C5EAB" points="240.5,0.7 257.7,0.7 247.8,82.4 230.7,82.4 			"/>
			<polygon fill="#0C5EAB" points="273.8,0.7 290.9,0.7 281.1,82.4 264,82.4 			"/>
			<path fill="#0C5EAB" d="M306.9,0h17.5l-1.4,11.3h-17.5L306.9,0z M304.6,21.5h17.1l-7.3,60.8h-17.1L304.6,21.5z"/>
			<path fill="#0C5EAB" d="M328.8,68.1c5.5,2.3,11.1,4.5,17.1,4.5c3.8,0,9.4-1.6,9.9-5.6c1.1-9.3-22.9-16-21-31.6
				c0.5-4,3.8-15.3,24.6-15.3c6,0,12,0.9,17.9,2l-0.2,12.5c-4-1.7-10.8-3.2-15.4-3.2c-2.9,0-8.1,0.9-8.6,5
				c-0.9,7.8,22.9,15.8,21,32.1c-1.4,11.5-15.2,15.4-25.5,15.4c-6.6,0-13.2-1.1-19.4-2.6L328.8,68.1z"/>
		</g>
		<g>
			<path fill="#0C5EAB" d="M405,69.4h15.3c20.3,0,30.9-13.3,32.4-31.7c1.1-13-5.3-24-20.2-24h-20.7L405,69.4z M395.8,0.7h41.4
				c24.7,0,34.5,16.4,33,37.2c-2.2,29.4-22.8,44.4-45.5,44.4H386L395.8,0.7z"/>
			<path fill="#0C5EAB" d="M494.1,51.9c-1.4,12,3.2,20,14.1,20c10.9,0,17.5-8,18.9-20c1.5-12-3.2-19.8-14.1-19.8
				C502.1,32.1,495.5,39.9,494.1,51.9 M544.2,52c-2.3,18.6-16.1,31.8-37.5,31.8S474.7,70.6,476.9,52c2.3-18.7,16.1-32,37.5-32
				C535.9,20.1,546.5,33.3,544.2,52"/>
			<path fill="#0C5EAB" d="M575.3,31.6l0.2,0.2c5.6-9.1,14-11.8,24.2-11.8c12.9,0,23.4,4.8,21.6,19.7l-5.1,42.6h-17.1l4.7-38.7
				c0.8-6.4-4.7-9.9-11.3-9.9c-11.5,0-18.1,6.2-20.4,25.1l-2.8,23.5h-17.1l7.3-60.8h17.1L575.3,31.6z"/>
		</g>
	</g>
</g>
</svg>
