<?xml version="1.0" encoding="UTF-8" standalone="no"?>
<svg
   xmlns:dc="http://purl.org/dc/elements/1.1/"
   xmlns:cc="http://creativecommons.org/ns#"
   xmlns:rdf="http://www.w3.org/1999/02/22-rdf-syntax-ns#"
   xmlns:svg="http://www.w3.org/2000/svg"
   xmlns="http://www.w3.org/2000/svg"
   viewBox="0 0 504 117.33333"
   height="117.33333"
   width="504"
   xml:space="preserve"
   id="svg2"
   version="1.1"><metadata
     id="metadata8"><rdf:RDF><cc:Work
         rdf:about=""><dc:format>image/svg+xml</dc:format><dc:type
           rdf:resource="http://purl.org/dc/dcmitype/StillImage" /></cc:Work></rdf:RDF></metadata><defs
     id="defs6"><clipPath
       id="clipPath18"
       clipPathUnits="userSpaceOnUse"><path
         id="path16"
         d="M 0,88 H 378 V 0 H 0 Z" /></clipPath></defs><g
     transform="matrix(1.3333333,0,0,-1.3333333,0,117.33333)"
     id="g10"><g
       id="g12"><g
         clip-path="url(#clipPath18)"
         id="g14"><g
           transform="translate(272.8765,58.1396)"
           id="g20"><path
             id="path22"
             style="fill:#54b848;fill-opacity:1;fill-rule:nonzero;stroke:none"
             d="m 0,0 c 0,-1.729 0.37,-1.852 3.542,-2.018 v -1.565 h -12.44 v 1.565 c 2.348,0.127 2.679,0.289 2.679,2.018 v 12.107 c 0,1.648 -0.331,2.02 -0.989,2.101 l -1.443,0.209 v 1.481 l 8.031,1.196 0.495,-3.628 c 2.388,2.515 3.745,3.628 5.479,3.628 1.729,0 2.883,-1.113 2.883,-2.886 0,-0.909 -0.211,-1.734 -0.662,-2.346 C 7.122,11.247 6.299,10.789 5.479,10.789 4.692,10.789 4.122,11.12 3.581,11.451 2.677,11.984 2.055,12.315 1.398,12.315 0.409,12.315 0,11.367 0,9.227 Z" /></g><g
           transform="translate(291.6147,54.5557)"
           id="g24"><path
             id="path26"
             style="fill:#54b848;fill-opacity:1;fill-rule:nonzero;stroke:none"
             d="m 0,0 -3.213,8.854 c -0.993,2.677 -1.938,5.313 -3.005,7.95 -0.537,1.318 -1.074,1.685 -2.68,1.813 v 1.562 H 2.016 V 18.617 L 0.495,18.411 C -0.245,18.328 -0.328,18 -0.081,17.216 L 3.951,5.437 H 4.12 c 1.401,4.162 2.716,7.909 3.706,11.615 0.203,0.783 0.08,1.234 -0.659,1.318 l -1.773,0.247 v 1.562 h 8.523 V 18.617 C 12.229,18.489 11.776,18.286 11.078,16.846 10.336,15.364 9.222,12.768 8.109,9.719 L 4.529,0 Z" /></g><g
           transform="translate(309.5293,81.5049)"
           id="g28"><path
             id="path30"
             style="fill:#54b848;fill-opacity:1;fill-rule:nonzero;stroke:none"
             d="M 0,0 C 0,1.742 1.299,3.224 3.375,3.224 5.487,3.224 6.786,1.742 6.786,0 6.786,-1.776 5.411,-3.26 3.375,-3.26 1.299,-3.26 0,-1.776 0,0 m 0.492,-11.258 c 0,1.646 -0.333,2.021 -0.99,2.102 l -1.442,0.205 v 1.485 l 8.364,1.195 0.284,-0.25 v -16.844 c 0,-1.729 0.328,-1.893 2.677,-2.02 v -1.566 h -11.57 v 1.566 c 2.344,0.127 2.677,0.291 2.677,2.02 z" /></g><g
           transform="translate(332.875,66.9136)"
           id="g32"><path
             id="path34"
             style="fill:#54b848;fill-opacity:1;fill-rule:nonzero;stroke:none"
             d="m 0,0 c 0.951,0 1.276,0.245 1.276,1.357 0,1.935 -0.409,5.062 -2.924,5.062 -2.678,0 -3.459,-3.453 -3.459,-6.419 z m 7.412,-6.838 c -1.396,-3.625 -4.076,-6.014 -8.977,-6.014 -7.659,-0.038 -10.091,4.982 -10.091,10.584 0,5.763 2.763,10.588 10.175,10.588 7.944,0 9.223,-5.192 9.223,-8.567 0,-1.318 -0.74,-1.734 -2.219,-1.734 h -10.63 c 0,-4.318 1.401,-7.701 5.516,-7.701 2.515,0 4.284,1.318 5.523,3.669 z" /></g><g
           transform="translate(352.1558,74.7349)"
           id="g36"><path
             id="path38"
             style="fill:#54b848;fill-opacity:1;fill-rule:nonzero;stroke:none"
             d="m 0,0 v -1.563 l -1.153,-0.124 c -0.824,-0.082 -0.99,-0.41 -0.74,-1.318 l 3.13,-11.326 h 0.12 L 5.19,0 h 4.321 l 4.244,-14.331 h 0.167 c 1.031,3.873 2.388,9.102 2.758,11.162 0.122,0.783 0.041,1.234 -0.698,1.359 l -1.774,0.247 V 0 h 8.526 v -1.563 c -2.096,-0.166 -2.388,-0.456 -3.005,-2.057 -0.62,-1.482 -1.484,-4.081 -2.346,-6.92 l -2.969,-9.64 H 9.883 L 5.766,-7.537 H 5.597 L 1.852,-20.18 h -4.529 l -3.461,10.914 c -0.82,2.597 -1.068,3.419 -1.976,5.933 -0.495,1.398 -0.951,1.604 -2.594,1.77 V 0 Z" /></g><g
           transform="translate(186.2754,59.1289)"
           id="g40"><path
             id="path42"
             style="fill:#54b848;fill-opacity:1;fill-rule:nonzero;stroke:none"
             d="m 0,0 c 0,-2.019 0.904,-2.677 2.966,-2.677 2.883,0 5.188,1.442 5.188,5.848 0,3.459 -1.932,6.383 -6.055,6.383 H 0 Z m 0,11.445 h 2.019 c 3.953,0 5.559,2.268 5.559,5.315 0,3.086 -1.481,5.274 -5.192,5.274 C 0.74,22.034 0,21.911 0,20.51 Z m 3.745,12.482 c 6.51,0 10.503,-1.81 10.503,-6.839 0,-3.375 -2.06,-5.518 -6.094,-6.383 v -0.08 c 3.828,-0.576 7.208,-2.842 7.208,-7.412 0,-2.229 -0.659,-4.203 -2.346,-5.562 C 11.281,-3.748 8.44,-4.573 3.745,-4.573 H -9.844 v 1.562 c 2.925,0.131 3.253,0.334 3.253,2.432 v 20.508 c 0,2.105 -0.328,2.307 -3.253,2.432 v 1.566 z" /></g><g
           transform="translate(213.3677,58.1396)"
           id="g44"><path
             id="path46"
             style="fill:#54b848;fill-opacity:1;fill-rule:nonzero;stroke:none"
             d="M 0,0 C 0,-1.729 0.326,-1.891 2.675,-2.021 V -3.583 H -8.898 v 1.562 c 2.351,0.13 2.679,0.292 2.679,2.021 v 21.989 c 0,1.652 -0.328,2.019 -0.989,2.141 l -1.445,0.253 v 1.481 l 8.364,1.11 L 0,26.724 Z" /></g><g
           transform="translate(23.7764,68.5977)"
           id="g48"><path
             id="path50"
             style="fill:#54b848;fill-opacity:1;fill-rule:nonzero;stroke:none"
             d="m 0,0 h -10.828 v -10.047 c 0,-2.099 0.331,-2.305 3.252,-2.43 v -1.562 h -13.091 v 1.562 c 2.922,0.125 3.253,0.331 3.253,2.43 v 20.505 c 0,2.099 -0.331,2.305 -3.253,2.427 v 1.565 h 13.091 v -1.565 c -2.921,-0.122 -3.252,-0.328 -3.252,-2.427 V 1.977 H 0 v 8.481 c 0,2.099 -0.328,2.305 -3.25,2.427 V 14.45 H 9.838 V 12.885 C 6.917,12.763 6.588,12.557 6.588,10.458 v -20.505 c 0,-2.099 0.329,-2.305 3.25,-2.43 v -1.562 H -3.25 v 1.562 c 2.922,0.125 3.25,0.331 3.25,2.43 z" /></g><g
           transform="translate(46.8608,55.9561)"
           id="g52"><path
             id="path54"
             style="fill:#54b848;fill-opacity:1;fill-rule:nonzero;stroke:none"
             d="m 0,0 c 2.88,0 4.075,3.172 4.075,8.688 0,5.518 -1.195,8.687 -4.075,8.687 -2.925,0 -4.117,-3.169 -4.117,-8.687 C -4.117,3.172 -2.925,0 0,0 M 10.622,8.688 C 10.622,2.102 7.45,-1.893 0,-1.893 c -7.495,0 -10.664,3.995 -10.664,10.581 0,6.588 3.169,10.58 10.664,10.58 7.45,0 10.622,-3.992 10.622,-10.58" /></g><g
           transform="translate(69.5322,58.1396)"
           id="g56"><path
             id="path58"
             style="fill:#54b848;fill-opacity:1;fill-rule:nonzero;stroke:none"
             d="m 0,0 c 0,-1.729 0.328,-1.893 2.677,-2.018 v -1.563 h -11.57 v 1.563 c 2.346,0.125 2.674,0.289 2.674,2.018 v 21.987 c 0,1.646 -0.328,2.015 -0.987,2.138 l -1.44,0.247 v 1.484 l 8.357,1.11 L 0,26.721 Z" /></g><g
           transform="translate(83.5723,58.1396)"
           id="g60"><path
             id="path62"
             style="fill:#54b848;fill-opacity:1;fill-rule:nonzero;stroke:none"
             d="M 0,0 C 0,-1.729 0.331,-1.893 2.68,-2.018 V -3.581 H -8.893 v 1.563 c 2.346,0.125 2.677,0.289 2.677,2.018 v 21.987 c 0,1.646 -0.331,2.015 -0.987,2.138 l -1.443,0.247 v 1.484 l 8.359,1.11 L 0,26.721 Z" /></g><g
           transform="translate(101.3447,66.0449)"
           id="g64"><path
             id="path66"
             style="fill:#54b848;fill-opacity:1;fill-rule:nonzero;stroke:none"
             d="m 0,0 c -0.99,-0.453 -2.43,-1.029 -3.706,-1.729 -1.237,-0.701 -1.893,-1.649 -1.893,-3.583 0,-2.183 1.44,-3.459 3.047,-3.459 1.109,0 2.471,0.578 2.552,2.799 z m 9.471,-10.745 c -1.362,-0.536 -3.953,-1.237 -6.096,-1.237 -1.974,0 -2.675,1.112 -3.211,2.388 -1.44,-0.945 -3.253,-2.388 -5.888,-2.388 -4.156,0 -6.216,2.883 -6.216,5.971 0,2.347 1.112,4.034 4.362,5.146 2.68,0.904 6.135,1.935 7.578,2.922 v 2.182 c 0,2.347 -1.195,3.047 -2.388,3.047 -1.154,0 -2.469,-0.617 -3.623,-4.117 -0.327,-0.987 -0.783,-1.648 -1.69,-1.648 -1.07,0 -3.703,0.745 -3.703,2.596 0,2.675 3.703,5.062 9.758,5.062 7.287,0 7.698,-3.21 7.698,-5.762 v -9.511 c 0,-2.429 0.781,-2.924 1.318,-3.088 0.617,-0.206 1.44,-0.248 1.976,-0.206 z" /></g><g
           transform="translate(134.6948,58.1396)"
           id="g68"><path
             id="path70"
             style="fill:#54b848;fill-opacity:1;fill-rule:nonzero;stroke:none"
             d="M 0,0 C 0,-1.729 0.331,-1.893 2.677,-2.018 V -3.581 H -8.398 v 1.563 l 0.864,0.083 c 0.865,0.083 1.318,0.287 1.318,1.646 v 10.458 c -0.084,2.469 -1.154,3.748 -3.253,3.748 -1.729,0 -2.841,-0.948 -3.375,-2.019 -0.289,-0.578 -0.414,-1.523 -0.414,-2.429 v -9.758 c 0,-1.359 0.456,-1.563 1.32,-1.646 l 0.862,-0.083 v -1.563 h -11.072 v 1.563 c 2.343,0.125 2.674,0.289 2.674,2.018 v 12.104 c 0,1.648 -0.331,2.018 -0.987,2.099 l -1.44,0.206 v 1.484 l 8.109,1.193 0.534,-2.841 c 2.719,1.607 4.654,2.841 7.042,2.841 4.239,0 6.177,-2.469 6.216,-6.341 z" /></g><g
           transform="translate(154.7739,69.2959)"
           id="g72"><path
             id="path74"
             style="fill:#54b848;fill-opacity:1;fill-rule:nonzero;stroke:none"
             d="m 0,0 c 0,0.864 0,1.812 -0.331,2.43 -0.412,0.822 -1.234,1.607 -2.799,1.607 -2.305,0 -4.568,-2.185 -4.568,-8.235 0,-5.271 1.81,-7.865 4.484,-7.865 2.638,0 3.214,1.936 3.214,3.581 z m 6.216,-11.156 c 0,-1.73 0.33,-1.893 2.677,-2.018 v -1.563 H 0 v 2.057 c -2.224,-1.771 -4.448,-2.554 -5.972,-2.554 -5.229,0 -8.276,4.2 -8.276,10.213 0,3.706 1.154,6.463 3.092,8.273 1.89,1.771 4.609,2.678 7.698,2.678 1.398,0 2.551,-0.164 3.458,-0.537 v 5.438 c 0,1.646 -0.331,2.015 -0.99,2.138 l -1.44,0.247 V 14.7 l 8.357,1.11 0.289,-0.245 z" /></g><path
           id="path76"
           style="fill:#007cc2;fill-opacity:1;fill-rule:nonzero;stroke:none"
           d="M 3.111,40.313 H 373.33 V 38.745 H 3.111 Z" /><g
           transform="translate(250.1313,75.2275)"
           id="g78"><path
             id="path80"
             style="fill:#007cc2;fill-opacity:1;fill-rule:nonzero;stroke:none"
             d="m 0,0 c -7.591,0 -9.422,-3.383 -11.969,-8.034 -0.721,-1.328 -2.104,-3.771 -2.7,-4.831 -2.375,-4.239 -3.445,-6.403 -6.065,-6.403 -3.224,0 -4.378,3.169 -4.378,8.687 0,5.516 1.154,8.683 4.378,8.683 2.62,0 4.468,-0.774 6.846,-5.014 0.039,-0.07 0.083,-0.148 0.13,-0.231 l 1.539,2.768 C -13.815,-1.852 -16.008,0 -20.734,0 c -7.821,0 -11.349,-3.995 -11.349,-10.581 0,-6.591 3.528,-10.586 11.349,-10.586 7.588,0 9.421,3.386 11.966,8.04 0.726,1.328 2.106,3.768 2.703,4.825 2.377,4.242 3.445,6.404 6.065,6.404 3.224,0 4.377,-3.167 4.377,-8.683 0,-5.518 -1.153,-8.687 -4.377,-8.687 -2.62,0 -4.466,0.776 -6.846,5.013 -0.039,0.073 -0.081,0.151 -0.131,0.234 l -1.539,-2.771 c 1.597,-2.52 3.787,-4.375 8.516,-4.375 7.82,0 11.349,3.995 11.349,10.586 C 11.349,-3.995 7.82,0 0,0" /></g><g
           transform="translate(4.4126,28.1401)"
           id="g82"><path
             id="path84"
             style="fill:#007cc2;fill-opacity:1;fill-rule:nonzero;stroke:none"
             d="M 0,0 H 2.781 V -8.539 L 11.07,0 h 3.698 l -9.122,-9.177 9.846,-10.237 h -4.06 l -8.651,9.511 v -9.511 H 0 Z" /></g><path
           id="path86"
           style="fill:#007cc2;fill-opacity:1;fill-rule:nonzero;stroke:none"
           d="m 23.376,22.912 h 2.615 V 8.727 h -2.615 z m 2.781,3.169 h -2.948 v 2.948 h 2.948 z" /><g
           transform="translate(37.0034,10.5054)"
           id="g88"><path
             id="path90"
             style="fill:#007cc2;fill-opacity:1;fill-rule:nonzero;stroke:none"
             d="m 0,0 c 2.948,0 4.172,2.919 4.172,5.287 0,2.64 -1.362,5.338 -4.201,5.338 -2.836,0 -3.948,-2.669 -3.893,-5.258 C -3.977,3.144 -2.81,0 0,0 M 4.284,0.224 H 4.227 c -0.696,-1.057 -2.308,-2.338 -4.839,-2.338 -4.284,0 -6.091,3.812 -6.091,7.679 0,3.81 2.002,7.175 6.117,7.175 2.477,0 3.896,-0.974 4.701,-2.282 h 0.057 v 8.623 H 6.786 V -1.778 H 4.284 Z" /></g><g
           transform="translate(47.6519,11.5078)"
           id="g92"><path
             id="path94"
             style="fill:#007cc2;fill-opacity:1;fill-rule:nonzero;stroke:none"
             d="m 0,0 c 1.028,-0.667 2.502,-1.003 3.255,-1.003 1.195,0 2.669,0.503 2.669,2.031 0,2.586 -6.146,2.365 -6.146,6.342 0,2.947 2.196,4.367 5.006,4.367 1.224,0 2.226,-0.25 3.255,-0.555 L 7.815,8.901 C 7.231,9.26 5.674,9.622 5.062,9.622 3.727,9.622 2.557,9.067 2.557,7.901 c 0,-2.896 6.149,-2.06 6.149,-6.594 0,-3.031 -2.42,-4.424 -4.951,-4.424 -1.336,0 -2.698,0.14 -3.896,0.781 z" /></g><g
           transform="translate(71.0654,19.7964)"
           id="g96"><path
             id="path98"
             style="fill:#007cc2;fill-opacity:1;fill-rule:nonzero;stroke:none"
             d="m 0,0 h 2.365 c 2.643,0 4.2,1.167 4.2,3.031 0,1.753 -1.336,2.865 -3.893,2.865 L 0,5.896 Z m -2.781,8.344 h 4.758 c 3.835,0 7.536,-0.612 7.536,-5.258 0,-2.362 -1.752,-4.031 -4.005,-4.422 V -1.391 C 6.37,-1.724 6.787,-2.144 7.398,-3.339 L 11.07,-11.07 H 7.901 l -2.979,6.732 c -0.86,1.89 -1.778,1.89 -3.253,1.89 H 0 v -8.622 h -2.781 z" /></g><g
           transform="translate(94.8413,17.1807)"
           id="g100"><path
             id="path102"
             style="fill:#007cc2;fill-opacity:1;fill-rule:nonzero;stroke:none"
             d="M 0,0 C 0,2.169 -1.279,3.951 -3.531,3.951 -6.091,3.951 -7.148,1.836 -7.344,0 Z m 1.698,-7.87 c -1.003,-0.361 -2.143,-0.919 -4.479,-0.919 -5.034,0 -7.342,3.06 -7.342,7.677 0,4.2 2.641,7.177 6.646,7.177 4.729,0 6.258,-3.45 6.258,-8.01 H -7.344 c 0,-2.81 2.198,-4.729 4.675,-4.729 1.724,0 3.726,0.89 4.367,1.419 z" /></g><g
           transform="translate(101.5972,29.5864)"
           id="g104"><path
             id="path106"
             style="fill:#007cc2;fill-opacity:1;fill-rule:nonzero;stroke:none"
             d="m 0,0 h 2.614 v -8.706 h 0.055 c 0.945,1.503 2.588,2.365 4.562,2.365 3.672,0 5.313,-2.282 5.313,-6.091 v -8.427 H 9.929 v 7.343 c 0,3.308 -0.723,4.922 -3.002,5.06 -2.979,0 -4.313,-2.39 -4.313,-5.841 v -6.562 H 0 Z" /></g><g
           transform="translate(127.4863,15.4849)"
           id="g108"><path
             id="path110"
             style="fill:#007cc2;fill-opacity:1;fill-rule:nonzero;stroke:none"
             d="m 0,0 c -0.555,0 -1.112,0.055 -1.667,0.055 -1.419,0 -4.924,-0.222 -4.924,-2.727 0,-1.5 1.445,-2.307 2.643,-2.307 2.586,0 3.948,1.614 3.948,3.727 z m -7.76,6.424 c 1.307,0.779 2.864,1.336 4.674,1.336 4.06,0 5.701,-2.002 5.701,-5.869 v -5.868 c 0,-1.614 0.057,-2.364 0.112,-2.781 H 0.279 v 1.834 H 0.221 c -0.609,-0.863 -2,-2.17 -4.393,-2.17 -3.059,0 -5.2,1.336 -5.2,4.422 0,3.563 3.893,4.675 6.591,4.675 1.029,0 1.752,0 2.781,-0.058 0,2.451 -0.888,3.701 -3.505,3.701 -1.474,0 -3.057,-0.558 -4.115,-1.445 z" /></g><g
           transform="translate(141.8081,21.1313)"
           id="g112"><path
             id="path114"
             style="fill:#007cc2;fill-opacity:1;fill-rule:nonzero;stroke:none"
             d="m 0,0 c -2.839,0 -4.201,-2.698 -4.201,-5.341 0,-2.365 1.224,-5.284 4.172,-5.284 2.81,0 3.977,3.143 3.922,5.367 C 3.948,-2.698 2.836,0 0,0 m -6.815,8.456 h 2.614 v -8.623 h 0.055 c 0.807,1.308 2.227,2.281 4.701,2.281 4.116,0 6.119,-3.366 6.119,-7.176 0,-3.894 -1.807,-7.678 -6.091,-7.678 -2.531,0 -4.143,1.279 -4.841,2.336 h -0.054 v -1.999 h -2.503 z" /></g><path
           id="path116"
           style="fill:#007cc2;fill-opacity:1;fill-rule:nonzero;stroke:none"
           d="m 152.79,22.912 h 2.614 V 8.727 h -2.614 z m 2.78,3.169 h -2.948 v 2.948 h 2.948 z" /><path
           id="path118"
           style="fill:#007cc2;fill-opacity:1;fill-rule:nonzero;stroke:none"
           d="m 160.992,29.586 h 2.615 V 8.727 h -2.615 z" /><path
           id="path120"
           style="fill:#007cc2;fill-opacity:1;fill-rule:nonzero;stroke:none"
           d="m 169.195,22.912 h 2.615 V 8.727 h -2.615 z m 2.782,3.169 h -2.95 v 2.948 h 2.95 z" /><g
           transform="translate(184.603,20.7974)"
           id="g122"><path
             id="path124"
             style="fill:#007cc2;fill-opacity:1;fill-rule:nonzero;stroke:none"
             d="m 0,0 h -3.755 v -7.761 c 0,-1.64 1,-2.531 2.198,-2.531 0.805,0 1.388,0.25 1.779,0.503 v -2.227 c -0.584,-0.167 -1.391,-0.39 -2.224,-0.39 -2.698,0 -4.368,1.281 -4.368,4.117 V 0 h -3.2 v 2.114 h 3.2 v 3.282 l 2.615,0.833 V 2.114 l 3.755,0 z" /></g><g
           transform="translate(196.7822,15.4849)"
           id="g126"><path
             id="path128"
             style="fill:#007cc2;fill-opacity:1;fill-rule:nonzero;stroke:none"
             d="m 0,0 c -0.555,0 -1.112,0.055 -1.669,0.055 -1.417,0 -4.922,-0.222 -4.922,-2.727 0,-1.5 1.445,-2.307 2.64,-2.307 2.586,0 3.951,1.614 3.951,3.727 z m -7.761,6.424 c 1.308,0.779 2.865,1.336 4.675,1.336 4.06,0 5.7,-2.002 5.7,-5.869 v -5.868 c 0,-1.614 0.057,-2.364 0.113,-2.781 H 0.278 v 1.834 H 0.221 c -0.612,-0.863 -2.002,-2.17 -4.393,-2.17 -3.06,0 -5.201,1.336 -5.201,4.422 0,3.563 3.894,4.675 6.592,4.675 1.028,0 1.752,0 2.781,-0.058 0,2.451 -0.891,3.701 -3.505,3.701 -1.474,0 -3.06,-0.558 -4.118,-1.445 z" /></g><g
           transform="translate(211.8252,20.7974)"
           id="g130"><path
             id="path132"
             style="fill:#007cc2;fill-opacity:1;fill-rule:nonzero;stroke:none"
             d="m 0,0 h -3.755 v -7.761 c 0,-1.64 1.003,-2.531 2.198,-2.531 0.807,0 1.39,0.25 1.781,0.503 v -2.227 c -0.586,-0.167 -1.391,-0.39 -2.226,-0.39 -2.699,0 -4.365,1.281 -4.365,4.117 V 0 h -3.201 v 2.114 h 3.201 v 3.282 l 2.612,0.833 V 2.114 l 3.755,0 z" /></g><path
           id="path134"
           style="fill:#007cc2;fill-opacity:1;fill-rule:nonzero;stroke:none"
           d="m 215.911,22.912 h 2.615 V 8.727 h -2.615 z m 2.781,3.169 h -2.95 v 2.948 h 2.95 z" /><g
           transform="translate(230.0669,10.5054)"
           id="g136"><path
             id="path138"
             style="fill:#007cc2;fill-opacity:1;fill-rule:nonzero;stroke:none"
             d="m 0,0 c 3.06,0 4.421,2.781 4.421,5.312 0,2.699 -1.64,5.313 -4.421,5.313 -2.81,0 -4.451,-2.614 -4.451,-5.313 C -4.451,2.781 -3.089,0 0,0 m 0,12.74 c 4.31,0 7.203,-3.117 7.203,-7.428 0,-4.059 -2.948,-7.426 -7.203,-7.426 -4.284,0 -7.232,3.367 -7.232,7.426 0,4.311 2.893,7.428 7.232,7.428" /></g><g
           transform="translate(241.2427,22.9111)"
           id="g140"><path
             id="path142"
             style="fill:#007cc2;fill-opacity:1;fill-rule:nonzero;stroke:none"
             d="m 0,0 h 2.531 v -2.252 h 0.055 c 0.779,1.611 2.672,2.585 4.646,2.585 3.672,0 5.312,-2.281 5.312,-6.091 v -8.427 H 9.93 v 7.344 c 0,3.31 -0.724,4.922 -3.005,5.06 -2.977,0 -4.31,-2.391 -4.31,-5.839 v -6.565 H 0 Z" /></g><g
           transform="translate(267.2983,28.1401)"
           id="g144"><path
             id="path146"
             style="fill:#007cc2;fill-opacity:1;fill-rule:nonzero;stroke:none"
             d="M 0,0 H 2.781 V -8.122 H 12.07 V 0 h 2.781 V -19.414 H 12.07 v 8.844 H 2.781 v -8.844 H 0 Z" /></g><g
           transform="translate(293.7432,10.5054)"
           id="g148"><path
             id="path150"
             style="fill:#007cc2;fill-opacity:1;fill-rule:nonzero;stroke:none"
             d="m 0,0 c 3.06,0 4.422,2.781 4.422,5.312 0,2.699 -1.641,5.313 -4.422,5.313 -2.81,0 -4.45,-2.614 -4.45,-5.313 C -4.45,2.781 -3.088,0 0,0 m 0,12.74 c 4.312,0 7.203,-3.117 7.203,-7.428 0,-4.059 -2.948,-7.426 -7.203,-7.426 -4.284,0 -7.231,3.367 -7.231,7.426 0,4.311 2.893,7.428 7.231,7.428" /></g><g
           transform="translate(303.8638,11.5078)"
           id="g152"><path
             id="path154"
             style="fill:#007cc2;fill-opacity:1;fill-rule:nonzero;stroke:none"
             d="m 0,0 c 1.028,-0.667 2.502,-1.003 3.252,-1.003 1.196,0 2.672,0.503 2.672,2.031 0,2.586 -6.148,2.365 -6.148,6.342 0,2.947 2.198,4.367 5.008,4.367 1.221,0 2.223,-0.25 3.252,-0.555 L 7.815,8.901 C 7.231,9.26 5.674,9.622 5.062,9.622 3.727,9.622 2.557,9.067 2.557,7.901 c 0,-2.896 6.149,-2.06 6.149,-6.594 0,-3.031 -2.42,-4.424 -4.951,-4.424 -1.336,0 -2.698,0.14 -3.896,0.781 z" /></g><g
           transform="translate(323.0239,21.1313)"
           id="g156"><path
             id="path158"
             style="fill:#007cc2;fill-opacity:1;fill-rule:nonzero;stroke:none"
             d="m 0,0 c -2.836,0 -4.201,-2.698 -4.201,-5.341 0,-2.365 1.224,-5.284 4.172,-5.284 2.81,0 3.977,3.143 3.922,5.367 C 3.948,-2.698 2.838,0 0,0 m -6.815,1.781 h 2.505 v -2.005 h 0.052 c 0.698,1.057 2.31,2.338 4.813,2.338 4.117,0 6.119,-3.366 6.119,-7.176 0,-3.894 -1.807,-7.678 -6.091,-7.678 -2.502,0 -3.922,0.974 -4.729,2.282 h -0.055 v -7.787 h -2.614 z" /></g><path
           id="path160"
           style="fill:#007cc2;fill-opacity:1;fill-rule:nonzero;stroke:none"
           d="m 334.007,22.912 h 2.615 V 8.727 h -2.615 z m 2.781,3.169 h -2.948 v 2.948 h 2.948 z" /><g
           transform="translate(349.4126,20.7974)"
           id="g162"><path
             id="path164"
             style="fill:#007cc2;fill-opacity:1;fill-rule:nonzero;stroke:none"
             d="m 0,0 h -3.755 v -7.761 c 0,-1.64 1.002,-2.531 2.197,-2.531 0.805,0 1.391,0.25 1.779,0.503 v -2.227 c -0.583,-0.167 -1.39,-0.39 -2.224,-0.39 -2.698,0 -4.367,1.281 -4.367,4.117 V 0 h -3.2 v 2.114 h 3.2 v 3.282 l 2.615,0.833 V 2.114 l 3.755,0 z" /></g><g
           transform="translate(361.5923,15.4849)"
           id="g166"><path
             id="path168"
             style="fill:#007cc2;fill-opacity:1;fill-rule:nonzero;stroke:none"
             d="m 0,0 c -0.555,0 -1.112,0.055 -1.669,0.055 -1.417,0 -4.922,-0.222 -4.922,-2.727 0,-1.5 1.445,-2.307 2.64,-2.307 2.586,0 3.951,1.614 3.951,3.727 z m -7.76,6.424 c 1.307,0.779 2.864,1.336 4.674,1.336 4.06,0 5.701,-2.002 5.701,-5.869 v -5.868 c 0,-1.614 0.057,-2.364 0.112,-2.781 H 0.279 v 1.834 H 0.221 c -0.612,-0.863 -2.002,-2.17 -4.393,-2.17 -3.059,0 -5.2,1.336 -5.2,4.422 0,3.563 3.893,4.675 6.591,4.675 1.029,0 1.752,0 2.781,-0.058 0,2.451 -0.891,3.701 -3.505,3.701 -1.474,0 -3.06,-0.558 -4.117,-1.445 z" /></g><path
           id="path170"
           style="fill:#007cc2;fill-opacity:1;fill-rule:nonzero;stroke:none"
           d="m 369.434,29.586 h 2.615 V 8.727 h -2.615 z" /></g></g></g></svg>